<svg width="180" height="40" viewBox="0 0 180 40" fill="none" xmlns="http://www.w3.org/2000/svg">
<path d="M0.564176 19.3612L5.72437 14.3483C6.41207 13.6802 7.45848 13.6137 8.06162 14.1996L20.0027 25.7998L31.941 14.2023C32.5442 13.6162 33.5903 13.6827 34.2779 14.3504L39.4362 19.3616C40.1236 20.0294 40.192 21.0457 39.5889 21.6316L26.4185 34.4261C26.4141 34.4304 26.4098 34.4347 26.4053 34.439L21.2452 39.4519C21.2408 39.4561 21.2364 39.4603 21.2321 39.4645L21.092 39.6005C20.8008 39.8834 20.4063 40.0143 19.9987 39.9988C19.592 40.0137 19.1985 39.8829 18.9079 39.6006L18.7634 39.4601C18.7606 39.4575 18.7579 39.4549 18.7552 39.4522L13.5969 34.4412C13.5945 34.4388 13.5921 34.4365 13.5897 34.4341L0.411067 21.6317C-0.192063 21.0458 -0.123514 20.0293 0.564176 19.3612Z" fill="#292929"/>
<path d="M29.5 8C29.2147 8.58157 28.7667 9.12647 28.2602 9.60628C28.1598 9.70141 28.0568 9.79234 27.9513 9.87909L20.8016 17C20.3139 17.4621 19.5246 17.4635 19.0355 17L11.5185 9.53113L11.5241 9.52565C11.0832 9.0622 10.6832 8.54602 10.4336 8H29.5Z" fill="#FFD500"/>
<path d="M29.508 8H10.4327C9.56586 5.9363 10.0015 3.48407 11.7397 1.81087C13.9851 -0.350586 17.5817 -0.419435 19.9133 1.60378L19.9191 1.59837L19.93 1.60885C22.2547 -0.558007 25.964 -0.536074 28.2604 1.67471C30.0369 3.38492 30.4528 5.90887 29.508 8Z" fill="#087FFF"/>
<path d="M62.5791 32.8986V9.8002H77.3468V12.0062H65.2373V20.0518H76.6904V22.2902H65.2373V30.6926H77.3468V32.8986H62.5791ZM90.3388 24.4963L97.1319 32.8986H93.9487L88.7307 26.4752L83.5785 32.8986H80.3296L87.1883 24.4963L80.7234 16.5805H83.9395L88.7307 22.5822L93.522 16.5805H96.7709L90.3388 24.4963ZM109.312 16.1912C110.756 16.1912 112.036 16.5481 113.152 17.2618C114.268 17.9755 115.132 18.9812 115.744 20.2788C116.357 21.5548 116.663 23.0364 116.663 24.7233C116.663 26.4103 116.357 27.8919 115.744 29.1679C115.132 30.4223 114.268 31.3956 113.152 32.0876C112.058 32.7796 110.778 33.1257 109.312 33.1257C108.021 33.1257 106.895 32.8445 105.932 32.2822C104.969 31.72 104.236 30.9197 103.733 29.8816V39.906H101.075V21.1548C101.075 19.4678 100.988 17.943 100.813 16.5805H103.339L103.602 19.7273C104.061 18.6027 104.783 17.7376 105.768 17.132C106.774 16.5048 107.956 16.1912 109.312 16.1912ZM108.82 30.9521C110.439 30.9521 111.686 30.4114 112.561 29.3301C113.458 28.2487 113.907 26.7131 113.907 24.7233C113.907 22.7336 113.458 21.1872 112.561 20.0842C111.664 18.9595 110.417 18.3972 108.82 18.3972C107.179 18.3972 105.921 18.938 105.046 20.0193C104.171 21.1007 103.733 22.6471 103.733 24.6585C103.733 26.6698 104.171 28.227 105.046 29.3301C105.921 30.4114 107.179 30.9521 108.82 30.9521ZM128.563 33.1257C127.01 33.1257 125.642 32.7796 124.461 32.0876C123.279 31.3956 122.36 30.4114 121.704 29.1354C121.07 27.8594 120.752 26.3671 120.752 24.6585C120.752 22.9498 121.07 21.4575 121.704 20.1815C122.36 18.9055 123.279 17.9214 124.461 17.2293C125.642 16.5373 127.01 16.1912 128.563 16.1912C130.116 16.1912 131.483 16.5373 132.665 17.2293C133.846 17.9214 134.754 18.9055 135.388 20.1815C136.045 21.4575 136.373 22.9498 136.373 24.6585C136.373 26.3671 136.045 27.8594 135.388 29.1354C134.754 30.4114 133.846 31.3956 132.665 32.0876C131.483 32.7796 130.116 33.1257 128.563 33.1257ZM128.563 30.9521C130.204 30.9521 131.462 30.4223 132.336 29.3625C133.212 28.2812 133.649 26.7131 133.649 24.6585C133.649 22.6688 133.201 21.1331 132.304 20.0518C131.407 18.9487 130.16 18.3972 128.563 18.3972C126.944 18.3972 125.686 18.9487 124.789 20.0518C123.892 21.1331 123.443 22.6688 123.443 24.6585C123.443 26.7131 123.881 28.2812 124.756 29.3625C125.653 30.4223 126.922 30.9521 128.563 30.9521ZM141.272 32.8986V9.8002H157.024V13.7905H146.326V19.1434H156.368V23.1661H146.326V32.8986H141.272ZM161.228 9.8002H171.828C174.41 9.8002 176.412 10.4166 177.834 11.6494C179.278 12.8822 180 14.5583 180 16.6778C180 18.7758 179.278 20.4518 177.834 21.7063C176.39 22.9391 174.388 23.5554 171.828 23.5554H166.348V32.8986H161.228V9.8002ZM171.172 19.6949C173.842 19.6949 175.176 18.7 175.176 16.7103C175.176 14.6989 173.842 13.6932 171.172 13.6932H166.348V19.6949H171.172Z" fill="#292929"/>
</svg>
